# xmcd
#
# Track frame offsets: 
#        150
#        16783
#        33687
#        46785
#        58870
#        75617
#        88572
#        104229
#        116731
#        130445
#        144699
#        158482
#        173701
#        188884
#        206885
#        222141
#        234800
#        252515
#        268649
#        281043
#
# Disc length: 3954 seconds
#
# Revision: 0
# Processed by: cddbd v1.5.2PL0 Copyright (c) Steve Scherf et al.
# Submitted via: ExactAudioCopy v1.1
#
DISCID=250f7014
DTITLE=Various Artist - Dennie Damaro Presenteert Op Vlaamse Wijze - Deel 1
DYEAR=2017
DGENRE=Chanson
TTITLE0=Dennie Damaro - Hart Van Goud
TTITLE1=Jo Vally - Dana
TTITLE2=Sugarfree - Zeg 'ns Jongen
TTITLE3=De Romeo's - Feest In De Kroeg
TTITLE4=Danny Fabry - Waarom Ik En Niet Een Ander
TTITLE5=Yves Segers - Ayayay, Het Dak Eraf
TTITLE6=Eveline Cannoot - Ben Jij Gelukkig Met Mij?
TTITLE7=Sasha and Davy - Op Elk Moment
TTITLE8=Salim Seghers - Met Een Beetje Liefde
TTITLE9=Gino Verano - 1000 Keer Aan Jou Gedacht
TTITLE10=Dennie Damaro - Rode Rozen Schenk Ik Jou
TTITLE11=Jo Vally - Als Je Jezelf Door Mijn Ogen Kon Zien
TTITLE12=Sugarfree - We Gaan Ervoor
TTITLE13=De Romeo's - Cabrio
TTITLE14=Danny Fabry - Sweet Sweet Love
TTITLE15=Yves Segers - Je Ogen Hebben Geen Geheimen
TTITLE16=Eveline Cannoot - Droog Mijn Tranen
TTITLE17=Sasha and Davy - Vrij Als De Wind
TTITLE18=Salim Seghers - Ik Wil Weer Gelukkig Zijn
TTITLE19=Gino Verano - De Herinnering Blijft
EXTD=
EXTT0=
EXTT1=
EXTT2=
EXTT3=
EXTT4=
EXTT5=
EXTT6=
EXTT7=
EXTT8=
EXTT9=
EXTT10=
EXTT11=
EXTT12=
EXTT13=
EXTT14=
EXTT15=
EXTT16=
EXTT17=
EXTT18=
EXTT19=
PLAYORDER=
